<svg width="30" height="30" viewBox="0 0 30 30" fill="none" xmlns="http://www.w3.org/2000/svg">
<path d="M28.0664 13.0664C27.7734 13.3789 27.4707 13.7109 27.1582 14.0625C26.8457 14.4141 26.4502 14.8828 25.9717 15.4688C25.4932 16.0547 25.1074 16.6406 24.8145 17.2266C24.5215 17.8125 24.375 18.3203 24.375 18.75C24.375 19.2773 23.4619 19.7217 21.6357 20.083C19.8096 20.4443 17.5977 20.625 15 20.625C12.4023 20.625 10.1904 20.4443 8.36426 20.083C6.53809 19.7217 5.625 19.2773 5.625 18.75C5.625 18.1836 5.36133 17.4756 4.83398 16.626C4.30664 15.7764 3.81348 15.0928 3.35449 14.5752C2.89551 14.0576 2.44141 13.5742 1.99219 13.125C0.664063 11.8359 0 10.2734 0 8.4375C0 6.62109 0.639648 5.07324 1.91895 3.79395C3.19824 2.51465 4.74609 1.875 6.5625 1.875C7.01172 1.875 7.48047 1.92383 7.96875 2.02148C7.65625 2.82227 7.5 3.71094 7.5 4.6875C7.5 6.77734 8.14453 8.51562 9.43359 9.90234C9.39453 8.84766 9.375 7.73438 9.375 6.5625C9.375 4.74609 9.92188 3.19824 11.0156 1.91895C12.1094 0.639648 13.4375 0 15 0C16.5625 0 17.8906 0.639648 18.9844 1.91895C20.0781 3.19824 20.625 4.74609 20.625 6.5625C20.625 7.75391 20.6055 8.86719 20.5664 9.90234C21.8555 8.51562 22.5 6.77734 22.5 4.6875C22.5 3.71094 22.3438 2.82227 22.0312 2.02148C22.5195 1.92383 22.9883 1.875 23.4375 1.875C25.2539 1.875 26.8018 2.51465 28.0811 3.79395C29.3604 5.07324 30 6.62109 30 8.4375C30 10.2539 29.3555 11.7969 28.0664 13.0664ZM14.9854 22.5C17.5732 22.5 19.7852 22.3145 21.6211 21.9434C23.457 21.5723 24.375 21.1328 24.375 20.625V28.125C24.375 28.6328 23.457 29.0723 21.6211 29.4434C19.7852 29.8145 17.5732 30 14.9854 30C12.3975 30 10.1904 29.8145 8.36426 29.4434C6.53809 29.0723 5.625 28.6328 5.625 28.125V20.625C5.625 21.1523 6.53809 21.5967 8.36426 21.958C10.1904 22.3193 12.3975 22.5 14.9854 22.5Z" fill="black" fill-opacity="0.8"/>
</svg>
