<svg width="66" height="87" viewBox="0 0 66 87" fill="none" xmlns="http://www.w3.org/2000/svg">
<path d="M0.5 34.6552H0.500022C0.584849 25.5757 4.01379 16.8925 10.0511 10.4947C16.0895 4.09571 24.2507 0.499562 32.7631 0.5L0.5 34.6552ZM0.5 34.6552V34.6599M0.5 34.6552V34.6599M0.5 34.6599C0.5 46.4778 7.58734 58.8946 14.7445 68.4391C21.8933 77.9725 29.1888 84.74 29.8359 85.3403L29.8423 85.3463L29.8448 85.3485M0.5 34.6599L29.8448 85.3485M29.8448 85.3485C30.653 86.0885 31.6877 86.5 32.7632 86.5C33.8332 86.5 34.8629 86.0927 35.6693 85.3597C36.4785 84.7044 43.7574 77.9389 50.8568 68.4385C57.9897 58.8931 65.0263 46.4769 65.0263 34.6599L65.0263 34.6552M29.8448 85.3485L65.0263 34.6552M65.0263 34.6552C64.9415 25.5757 61.5125 16.8925 55.4752 10.4947M65.0263 34.6552L55.4752 10.4947M55.4752 10.4947C49.4368 4.09571 41.2756 0.499559 32.7632 0.5L55.4752 10.4947Z" fill="white" stroke="black"/>
<path d="M24.1002 32.5264L26.4528 33.5423C26.679 33.64 26.923 33.6926 27.1704 33.6971C27.4179 33.7017 27.6637 33.658 27.8935 33.5687L28.6335 33.2807C28.8922 33.1802 29.1242 33.0244 29.3122 32.8247C29.5003 32.6251 29.6396 32.3868 29.7198 32.1276L30.2537 30.4036C30.3023 30.2146 30.3924 30.0381 30.5178 29.8861C30.6433 29.7342 30.8011 29.6104 30.9804 29.5232L32.2612 28.9V31.7311C32.2613 32.2325 32.1177 32.7241 31.8463 33.1507C31.575 33.5774 31.1867 33.9221 30.725 34.1464L27.4117 35.758C26.6426 36.132 25.9958 36.7067 25.5439 37.4176C25.092 38.1286 24.8527 38.9477 24.8529 39.7833V40.6H43.3742V29.8C43.3742 23.8375 38.3991 19 32.2612 19H23.6949C23.5106 19 23.3338 19.0711 23.2035 19.1977C23.0732 19.3243 23 19.496 23 19.675C22.9999 19.823 23.0354 19.969 23.1037 20.1014L23.9265 21.7L23.4053 22.2062C23.2764 22.3319 23.1742 22.4811 23.1047 22.6452C23.0351 22.8093 22.9996 22.9851 23 23.1625V30.8806C22.9998 31.2289 23.1036 31.5698 23.2989 31.862C23.4942 32.1541 23.7725 32.3849 24.1002 32.5264V32.5264ZM26.011 24.4C26.2401 24.4 26.464 24.466 26.6544 24.5896C26.8449 24.7132 26.9933 24.8889 27.081 25.0945C27.1686 25.3 27.1916 25.5262 27.1469 25.7445C27.1022 25.9627 26.9919 26.1632 26.8299 26.3205C26.668 26.4778 26.4616 26.585 26.237 26.6284C26.0123 26.6718 25.7795 26.6495 25.5679 26.5644C25.3562 26.4792 25.1754 26.335 25.0481 26.15C24.9209 25.965 24.8529 25.7475 24.8529 25.525C24.8529 25.2266 24.975 24.9405 25.1921 24.7295C25.4093 24.5185 25.7039 24.4 26.011 24.4V24.4ZM44.3088 42.4H23.9265C23.6808 42.4 23.4451 42.4948 23.2714 42.6636C23.0976 42.8324 23 43.0613 23 43.3V45.1C23 45.3387 23.0976 45.5676 23.2714 45.7364C23.4451 45.9052 23.6808 46 23.9265 46H44.3088C44.5545 46 44.7902 45.9052 44.9639 45.7364C45.1377 45.5676 45.2353 45.3387 45.2353 45.1V43.3C45.2353 43.0613 45.1377 42.8324 44.9639 42.6636C44.7902 42.4948 44.5545 42.4 44.3088 42.4Z" fill="black"/>
</svg>
