<?xml version="1.0" standalone="no"?>
<!DOCTYPE svg PUBLIC "-//W3C//DTD SVG 20010904//EN"
 "http://www.w3.org/TR/2001/REC-SVG-20010904/DTD/svg10.dtd">
<svg version="1.0" xmlns="http://www.w3.org/2000/svg"
 width="66.000000pt" height="87.000000pt" viewBox="0 0 66.000000 87.000000"
 preserveAspectRatio="xMidYMid meet">
<metadata>
Created by potrace 1.16, written by Peter Selinger 2001-2019
</metadata>
<g transform="translate(0.000000,87.000000) scale(0.100000,-0.100000)"
fill="#000000" stroke="none">
<path d="M210 853 c-66 -24 -161 -122 -188 -196 -67 -178 13 -386 236 -615 60
-61 84 -58 158 20 119 125 201 256 230 368 41 163 -27 328 -168 405 -45 25
-66 29 -138 32 -60 2 -98 -2 -130 -14z m202 -7 c186 -56 279 -264 204 -459
-14 -38 -50 -105 -79 -150 -64 -98 -182 -227 -207 -227 -29 0 -141 122 -220
239 -70 104 -94 172 -94 271 -1 73 3 94 27 146 69 148 224 224 369 180z"/>
<path d="M291 664 c-12 -15 -21 -36 -21 -47 0 -32 -11 -12 -12 22 -1 37 -27
42 -58 11 -28 -28 -25 -61 9 -104 16 -21 31 -42 33 -48 3 -8 35 -12 88 -12 53
0 85 4 88 12 2 6 17 27 33 48 34 43 37 76 9 104 -24 24 -65 28 -56 5 3 -8 1
-25 -4 -37 -9 -22 -9 -22 -9 -2 -1 29 -38 74 -61 74 -10 0 -28 -12 -39 -26z"/>
</g>
</svg>
