<svg width="64" height="85" viewBox="0 0 64 85" fill="none" xmlns="http://www.w3.org/2000/svg">
<path d="M31.7632 4.25621e-08C23.3938 -0.000447905 15.3625 3.53496 9.41477 9.83783C3.46707 16.1407 0.0836937 24.7016 0 33.6599C0 56.9498 27.9913 82.8747 29.1824 83.9797C29.9016 84.6382 30.8168 85 31.7632 85C32.7095 85 33.6247 84.6382 34.3439 83.9797C35.7336 82.8747 63.5263 56.9498 63.5263 33.6599C63.4426 24.7016 60.0592 16.1407 54.1115 9.83783C48.1638 3.53496 40.1325 -0.000447905 31.7632 4.25621e-08Z" fill="#048BA8"/>
<path d="M45.0664 30.0664C44.7734 30.3789 44.4707 30.7109 44.1582 31.0625C43.8457 31.4141 43.4502 31.8828 42.9717 32.4688C42.4932 33.0547 42.1074 33.6406 41.8145 34.2266C41.5215 34.8125 41.375 35.3203 41.375 35.75C41.375 36.2773 40.4619 36.7217 38.6357 37.083C36.8096 37.4443 34.5977 37.625 32 37.625C29.4023 37.625 27.1904 37.4443 25.3643 37.083C23.5381 36.7217 22.625 36.2773 22.625 35.75C22.625 35.1836 22.3613 34.4756 21.834 33.626C21.3066 32.7764 20.8135 32.0928 20.3545 31.5752C19.8955 31.0576 19.4414 30.5742 18.9922 30.125C17.6641 28.8359 17 27.2734 17 25.4375C17 23.6211 17.6396 22.0732 18.9189 20.7939C20.1982 19.5146 21.7461 18.875 23.5625 18.875C24.0117 18.875 24.4805 18.9238 24.9688 19.0215C24.6562 19.8223 24.5 20.7109 24.5 21.6875C24.5 23.7773 25.1445 25.5156 26.4336 26.9023C26.3945 25.8477 26.375 24.7344 26.375 23.5625C26.375 21.7461 26.9219 20.1982 28.0156 18.9189C29.1094 17.6396 30.4375 17 32 17C33.5625 17 34.8906 17.6396 35.9844 18.9189C37.0781 20.1982 37.625 21.7461 37.625 23.5625C37.625 24.7539 37.6055 25.8672 37.5664 26.9023C38.8555 25.5156 39.5 23.7773 39.5 21.6875C39.5 20.7109 39.3438 19.8223 39.0312 19.0215C39.5195 18.9238 39.9883 18.875 40.4375 18.875C42.2539 18.875 43.8018 19.5146 45.0811 20.7939C46.3604 22.0732 47 23.6211 47 25.4375C47 27.2539 46.3555 28.7969 45.0664 30.0664ZM31.9854 39.5C34.5732 39.5 36.7852 39.3145 38.6211 38.9434C40.457 38.5723 41.375 38.1328 41.375 37.625V45.125C41.375 45.6328 40.457 46.0723 38.6211 46.4434C36.7852 46.8145 34.5732 47 31.9854 47C29.3975 47 27.1904 46.8145 25.3643 46.4434C23.5381 46.0723 22.625 45.6328 22.625 45.125V37.625C22.625 38.1523 23.5381 38.5967 25.3643 38.958C27.1904 39.3193 29.3975 39.5 31.9854 39.5Z" fill="white"/>
</svg>
