<svg width="64" height="85" viewBox="0 0 64 85" fill="none" xmlns="http://www.w3.org/2000/svg">
<path d="M31.7632 4.25621e-08C23.3938 -0.000447905 15.3625 3.53496 9.41477 9.83783C3.46707 16.1407 0.0836937 24.7016 0 33.6599C0 56.9498 27.9913 82.8747 29.1824 83.9797C29.9016 84.6382 30.8168 85 31.7632 85C32.7095 85 33.6247 84.6382 34.3439 83.9797C35.7336 82.8747 63.5263 56.9498 63.5263 33.6599C63.4426 24.7016 60.0592 16.1407 54.1115 9.83783C48.1638 3.53496 40.1325 -0.000447905 31.7632 4.25621e-08Z" fill="#048BA8"/>
<path d="M23.1002 31.5264L25.4528 32.5423C25.679 32.64 25.923 32.6926 26.1704 32.6971C26.4179 32.7017 26.6637 32.658 26.8935 32.5687L27.6335 32.2807C27.8922 32.1802 28.1242 32.0244 28.3122 31.8247C28.5003 31.6251 28.6396 31.3868 28.7198 31.1276L29.2537 29.4036C29.3023 29.2146 29.3924 29.0381 29.5178 28.8861C29.6433 28.7342 29.8011 28.6104 29.9804 28.5232L31.2612 27.9V30.7311C31.2613 31.2325 31.1177 31.7241 30.8463 32.1507C30.575 32.5774 30.1867 32.9221 29.725 33.1464L26.4117 34.758C25.6426 35.132 24.9958 35.7067 24.5439 36.4176C24.092 37.1286 23.8527 37.9477 23.8529 38.7833V39.6H42.3742V28.8C42.3742 22.8375 37.3991 18 31.2612 18H22.6949C22.5106 18 22.3338 18.0711 22.2035 18.1977C22.0732 18.3243 22 18.496 22 18.675C21.9999 18.823 22.0354 18.969 22.1037 19.1014L22.9265 20.7L22.4053 21.2062C22.2764 21.3319 22.1742 21.4811 22.1047 21.6452C22.0351 21.8093 21.9996 21.9851 22 22.1625V29.8806C21.9998 30.2289 22.1036 30.5698 22.2989 30.862C22.4942 31.1541 22.7725 31.3849 23.1002 31.5264V31.5264ZM25.011 23.4C25.2401 23.4 25.464 23.466 25.6544 23.5896C25.8449 23.7132 25.9933 23.8889 26.081 24.0945C26.1686 24.3 26.1916 24.5262 26.1469 24.7445C26.1022 24.9627 25.9919 25.1632 25.8299 25.3205C25.668 25.4778 25.4616 25.585 25.237 25.6284C25.0123 25.6718 24.7795 25.6495 24.5679 25.5644C24.3562 25.4792 24.1754 25.335 24.0481 25.15C23.9209 24.965 23.8529 24.7475 23.8529 24.525C23.8529 24.2266 23.975 23.9405 24.1921 23.7295C24.4093 23.5185 24.7039 23.4 25.011 23.4V23.4ZM43.3088 41.4H22.9265C22.6808 41.4 22.4451 41.4948 22.2714 41.6636C22.0976 41.8324 22 42.0613 22 42.3V44.1C22 44.3387 22.0976 44.5676 22.2714 44.7364C22.4451 44.9052 22.6808 45 22.9265 45H43.3088C43.5545 45 43.7902 44.9052 43.9639 44.7364C44.1377 44.5676 44.2353 44.3387 44.2353 44.1V42.3C44.2353 42.0613 44.1377 41.8324 43.9639 41.6636C43.7902 41.4948 43.5545 41.4 43.3088 41.4Z" fill="white"/>
</svg>
