<?xml version="1.0" standalone="no"?>
<!DOCTYPE svg PUBLIC "-//W3C//DTD SVG 20010904//EN"
 "http://www.w3.org/TR/2001/REC-SVG-20010904/DTD/svg10.dtd">
<svg version="1.0" xmlns="http://www.w3.org/2000/svg"
 width="66.000000pt" height="87.000000pt" viewBox="0 0 66.000000 87.000000"
 preserveAspectRatio="xMidYMid meet">
<metadata>
Created by potrace 1.16, written by Peter Selinger 2001-2019
</metadata>
<g transform="translate(0.000000,87.000000) scale(0.100000,-0.100000)"
fill="#000000" stroke="none">
<path d="M210 853 c-66 -24 -161 -122 -188 -196 -67 -178 13 -386 236 -615 60
-61 84 -58 158 20 119 125 201 256 230 368 41 163 -27 328 -168 405 -45 25
-66 29 -138 32 -60 2 -98 -2 -130 -14z m202 -7 c186 -56 279 -264 204 -459
-14 -38 -50 -105 -79 -150 -64 -98 -182 -227 -207 -227 -29 0 -141 122 -220
239 -70 104 -94 172 -94 271 -1 73 3 94 27 146 69 148 224 224 369 180z"/>
<path d="M231 616 c-1 -55 1 -67 18 -75 23 -13 51 -5 51 14 0 8 5 17 10 20 6
3 10 -5 10 -19 0 -16 -7 -27 -20 -31 -26 -8 -50 -33 -50 -51 0 -11 19 -14 90
-14 l90 0 0 76 c0 73 -1 77 -34 110 -32 32 -38 34 -99 34 l-64 0 -2 -64z"/>
</g>
</svg>
