<svg width="23" height="28" viewBox="0 0 23 28" fill="none" xmlns="http://www.w3.org/2000/svg">
<path d="M1.60019 14.0264L3.95284 15.0423C4.17899 15.14 4.42298 15.1926 4.67042 15.1971C4.91786 15.2017 5.16372 15.158 5.39351 15.0687L6.13352 14.7808C6.39218 14.6802 6.62417 14.5244 6.81224 14.3247C7.00031 14.1251 7.13962 13.8868 7.21981 13.6276L7.75369 11.9036C7.80227 11.7146 7.89238 11.5381 8.01782 11.3861C8.14326 11.2342 8.30106 11.1104 8.48039 11.0232L9.76124 10.4V13.2311C9.76134 13.7325 9.61767 14.2241 9.34634 14.6507C9.07501 15.0774 8.68673 15.4221 8.22503 15.6464L4.91174 17.258C4.14258 17.632 3.49582 18.2067 3.04388 18.9176C2.59195 19.6286 2.35271 20.4477 2.35295 21.2833V22.1H20.8742V11.3C20.8742 5.3375 15.8991 0.5 9.76124 0.5H1.19486C1.01057 0.5 0.833832 0.571116 0.703522 0.697703C0.573212 0.82429 0.500004 0.995979 0.500004 1.175C0.49991 1.32303 0.535402 1.46903 0.603653 1.60138L1.42647 3.2L0.905335 3.70625C0.776394 3.83194 0.674226 3.98109 0.604675 4.14518C0.535125 4.30926 0.499556 4.48505 0.500004 4.6625V12.3806C0.499784 12.7289 0.603613 13.0698 0.798897 13.362C0.994182 13.6541 1.27253 13.8849 1.60019 14.0264ZM3.51103 5.9C3.74008 5.9 3.96399 5.96598 4.15443 6.0896C4.34488 6.21321 4.49331 6.38891 4.58097 6.59448C4.66862 6.80005 4.69155 7.02625 4.64687 7.24448C4.60218 7.46271 4.49189 7.66316 4.32992 7.8205C4.16796 7.97783 3.96161 8.08497 3.73696 8.12838C3.51232 8.17179 3.27946 8.14951 3.06785 8.06436C2.85624 7.97922 2.67537 7.83502 2.54812 7.65002C2.42087 7.46501 2.35295 7.2475 2.35295 7.025C2.35295 6.72663 2.47496 6.44048 2.69214 6.2295C2.90932 6.01853 3.20389 5.9 3.51103 5.9ZM21.8088 23.9H1.42647C1.18076 23.9 0.945108 23.9948 0.771361 24.1636C0.597614 24.3324 0.500004 24.5613 0.500004 24.8V26.6C0.500004 26.8387 0.597614 27.0676 0.771361 27.2364C0.945108 27.4052 1.18076 27.5 1.42647 27.5H21.8088C22.0545 27.5 22.2902 27.4052 22.4639 27.2364C22.6377 27.0676 22.7353 26.8387 22.7353 26.6V24.8C22.7353 24.5613 22.6377 24.3324 22.4639 24.1636C22.2902 23.9948 22.0545 23.9 21.8088 23.9Z" fill="black" fill-opacity="0.8"/>
</svg>
