<svg width="66" height="87" viewBox="0 0 66 87" fill="none" xmlns="http://www.w3.org/2000/svg">
<path d="M0.5 34.6552H0.500022C0.584849 25.5757 4.01379 16.8925 10.0511 10.4947C16.0895 4.09571 24.2507 0.499562 32.7631 0.5L0.5 34.6552ZM0.5 34.6552V34.6599M0.5 34.6552V34.6599M0.5 34.6599C0.5 46.4778 7.58734 58.8946 14.7445 68.4391C21.8933 77.9725 29.1888 84.74 29.8359 85.3403L29.8423 85.3463L29.8448 85.3485M0.5 34.6599L29.8448 85.3485M29.8448 85.3485C30.653 86.0885 31.6877 86.5 32.7632 86.5C33.8332 86.5 34.8629 86.0927 35.6693 85.3597C36.4785 84.7044 43.7574 77.9389 50.8568 68.4385C57.9897 58.8931 65.0263 46.4769 65.0263 34.6599L65.0263 34.6552M29.8448 85.3485L65.0263 34.6552M65.0263 34.6552C64.9415 25.5757 61.5125 16.8925 55.4752 10.4947M65.0263 34.6552L55.4752 10.4947M55.4752 10.4947C49.4368 4.09571 41.2756 0.499559 32.7632 0.5L55.4752 10.4947Z" fill="white" stroke="black"/>
<path d="M37.5625 20.6172H17.0781V41.1016H28.9375V52.4219H49.4219V31.9375H37.5625V20.6172ZM25.9932 25.4688L22.6098 35.1247H24.8945L25.4448 33.5547H28.9375V38.9453H19.2344V22.7734H35.4062V31.9375H30.914L28.6478 25.4688H25.9932ZM28.4403 31.3984H26.2003L27.3203 28.2019L28.4403 31.3984ZM47.2656 34.0938V50.2656H31.0938V34.0938H47.2656Z" fill="black"/>
<path d="M37.3895 43.8292C37.5957 44.1604 37.8228 44.4782 38.0693 44.7807C37.2876 45.2022 36.4 45.4133 35.4062 45.4141V47.5703C37.0329 47.5703 38.4863 47.1385 39.7188 46.3019C40.9512 47.1385 42.4046 47.5703 44.0312 47.5703V45.4141C43.0396 45.4141 42.1519 45.2028 41.3683 44.7802C41.6148 44.4779 41.8418 44.1603 42.048 43.8292C42.6695 42.8189 43.1265 41.7162 43.402 40.5625H44.5703V38.4062H40.7969V36.7891H38.6406V38.4062H34.8672V40.5625H36.0355C36.311 41.7162 36.768 42.8189 37.3895 43.8292V43.8292ZM41.1695 40.5625C40.9464 41.3087 40.627 42.0227 40.2194 42.6864C40.0671 42.9311 39.8999 43.1662 39.7188 43.3904C39.5508 43.1828 39.3949 42.9656 39.2518 42.7401C38.8276 42.0617 38.4966 41.3292 38.2677 40.5625H41.1695Z" fill="black"/>
</svg>
