<svg width="33" height="32" viewBox="0 0 33 32" fill="none" xmlns="http://www.w3.org/2000/svg">
<path d="M21.0625 0.117188H0.578125V20.6016H12.4375V31.9219H32.9219V11.4375H21.0625V0.117188ZM9.49321 4.96875L6.10978 14.6247H8.39453L8.94478 13.0547H12.4375V18.4453H2.73438V2.27344H18.9062V11.4375H14.414L12.1478 4.96875H9.49321ZM11.9403 10.8984H9.70028L10.8203 7.70193L11.9403 10.8984ZM30.7656 13.5938V29.7656H14.5938V13.5938H30.7656Z" fill="black" fill-opacity="0.8"/>
<path d="M20.8895 23.3292C21.0957 23.6604 21.3228 23.9782 21.5693 24.2807C20.7876 24.7022 19.9 24.9133 18.9062 24.9141V27.0703C20.5329 27.0703 21.9863 26.6385 23.2188 25.8019C24.4512 26.6385 25.9046 27.0703 27.5312 27.0703V24.9141C26.5396 24.9141 25.6519 24.7028 24.8683 24.2802C25.1148 23.9779 25.3418 23.6603 25.548 23.3292C26.1695 22.3189 26.6265 21.2162 26.902 20.0625H28.0703V17.9062H24.2969V16.2891H22.1406V17.9062H18.3672V20.0625H19.5355C19.811 21.2162 20.268 22.3189 20.8895 23.3292ZM24.6695 20.0625C24.4464 20.8087 24.127 21.5227 23.7194 22.1864C23.5671 22.4311 23.3999 22.6662 23.2188 22.8904C23.0508 22.6828 22.8949 22.4656 22.7518 22.2401C22.3276 21.5617 21.9966 20.8292 21.7677 20.0625H24.6695Z" fill="black" fill-opacity="0.8"/>
</svg>
