<svg width="64" height="85" viewBox="0 0 64 85" fill="none" xmlns="http://www.w3.org/2000/svg">
<path d="M31.7632 4.25621e-08C23.3938 -0.000447905 15.3625 3.53496 9.41477 9.83783C3.46707 16.1407 0.0836937 24.7016 0 33.6599C0 56.9498 27.9913 82.8747 29.1824 83.9797C29.9016 84.6382 30.8168 85 31.7632 85C32.7095 85 33.6247 84.6382 34.3439 83.9797C35.7336 82.8747 63.5263 56.9498 63.5263 33.6599C63.4426 24.7016 60.0592 16.1407 54.1115 9.83783C48.1638 3.53496 40.1325 -0.000447905 31.7632 4.25621e-08Z" fill="#048BA8"/>
<path d="M36.5625 19.6172H16.0781V40.1016H27.9375V51.4219H48.4219V30.9375H36.5625V19.6172ZM24.9932 24.4688L21.6098 34.1247H23.8945L24.4448 32.5547H27.9375V37.9453H18.2344V21.7734H34.4062V30.9375H29.914L27.6478 24.4688H24.9932ZM27.4403 30.3984H25.2003L26.3203 27.2019L27.4403 30.3984ZM46.2656 33.0938V49.2656H30.0938V33.0938H46.2656Z" fill="white"/>
<path d="M36.3895 42.8292C36.5957 43.1604 36.8228 43.4782 37.0693 43.7807C36.2876 44.2022 35.4 44.4133 34.4062 44.4141V46.5703C36.0329 46.5703 37.4863 46.1385 38.7188 45.3019C39.9512 46.1385 41.4046 46.5703 43.0312 46.5703V44.4141C42.0396 44.4141 41.1519 44.2028 40.3683 43.7802C40.6148 43.4779 40.8418 43.1603 41.048 42.8292C41.6695 41.8189 42.1265 40.7162 42.402 39.5625H43.5703V37.4062H39.7969V35.7891H37.6406V37.4062H33.8672V39.5625H35.0355C35.311 40.7162 35.768 41.8189 36.3895 42.8292V42.8292ZM40.1695 39.5625C39.9464 40.3087 39.627 41.0227 39.2194 41.6864C39.0671 41.9311 38.8999 42.1662 38.7188 42.3904C38.5508 42.1828 38.3949 41.9656 38.2518 41.7401C37.8276 41.0617 37.4966 40.3292 37.2677 39.5625H40.1695Z" fill="white"/>
</svg>
