<?xml version="1.0" standalone="no"?>
<!DOCTYPE svg PUBLIC "-//W3C//DTD SVG 20010904//EN"
 "http://www.w3.org/TR/2001/REC-SVG-20010904/DTD/svg10.dtd">
<svg version="1.0" xmlns="http://www.w3.org/2000/svg"
 width="66.000000pt" height="87.000000pt" viewBox="0 0 66.000000 87.000000"
 preserveAspectRatio="xMidYMid meet">
<metadata>
Created by potrace 1.16, written by Peter Selinger 2001-2019
</metadata>
<g transform="translate(0.000000,87.000000) scale(0.100000,-0.100000)"
fill="#000000" stroke="none">
<path d="M210 853 c-66 -24 -161 -122 -188 -196 -67 -178 13 -386 236 -615 60
-61 84 -58 158 20 119 125 201 256 230 368 41 163 -27 328 -168 405 -45 25
-66 29 -138 32 -60 2 -98 -2 -130 -14z m202 -7 c186 -56 279 -264 204 -459
-14 -38 -50 -105 -79 -150 -64 -98 -182 -227 -207 -227 -29 0 -141 122 -220
239 -70 104 -94 172 -94 271 -1 73 3 94 27 146 69 148 224 224 369 180z"/>
<path d="M170 560 l0 -100 60 0 60 0 0 -55 0 -55 100 0 100 0 0 100 0 99 -57
3 -58 3 -3 53 -3 52 -100 0 -99 0 0 -100z m180 35 c0 -39 -3 -45 -21 -45 -13
0 -23 10 -31 31 -14 40 -38 34 -55 -15 -15 -43 -11 -55 11 -37 20 17 36 6 36
-25 0 -22 -4 -24 -50 -24 l-50 0 0 80 0 80 80 0 80 0 0 -45z m120 -145 l0 -80
-80 0 -80 0 0 80 0 80 80 0 80 0 0 -80z"/>
</g>
</svg>
