<svg width="76" height="48" viewBox="0 0 76 48" fill="none" xmlns="http://www.w3.org/2000/svg">
<g clip-path="url(#clip0)">
<path d="M17.4067 0.143921V20.5766H12.751V12.2021H4.71718V20.5766H0.0615234V0.143921H4.71718V8.058H12.751V0.143921H17.4067Z" fill="black"/>
<path d="M35.4333 16.4325V20.5766H21.2676V0.143921H35.1778V4.28802H25.9232V8.25945H33.8719V12.087H25.9232V16.4325H35.4333V16.4325Z" fill="black"/>
<path d="M38.2715 20.5766V0.143921H47.3557C48.3024 0.143921 49.1775 0.340365 49.981 0.733254C50.7857 1.12614 51.4806 1.65417 52.0681 2.31607C52.6544 2.97798 53.1136 3.72121 53.4456 4.54703C53.7764 5.37159 53.9418 6.20617 53.9418 7.05076C53.9418 7.89534 53.8097 8.69613 53.5443 9.45438C53.279 10.2126 52.9013 10.8933 52.4088 11.4977C51.9163 12.102 51.33 12.5962 50.6487 12.9791L55.0773 20.5766H49.939L46.0782 13.9864H42.9271V20.5766H38.2715ZM42.9271 9.87105H47.1854C47.5643 9.87105 47.9 9.75093 48.1938 9.51069C48.4875 9.27045 48.7282 8.94013 48.917 8.51846C49.1059 8.09679 49.2009 7.60756 49.2009 7.05076C49.2009 6.49395 49.0923 6.00973 48.8739 5.59682C48.6566 5.18516 48.3863 4.86234 48.0654 4.63211C47.7433 4.40188 47.4026 4.28677 47.0434 4.28677H42.9271V9.87105Z" fill="black"/>
<path d="M65.9499 20.7205C64.4355 20.7205 63.0691 20.4277 61.8472 19.8421C60.6265 19.2578 59.5762 18.4708 58.6961 17.4823C57.8161 16.4938 57.1397 15.3815 56.6658 14.144C56.193 12.9065 55.9561 11.6265 55.9561 10.3014C55.9561 8.93885 56.2066 7.64381 56.7077 6.41635C57.2088 5.18888 57.9099 4.0903 58.8084 3.12184C59.707 2.15338 60.7722 1.39013 62.0027 0.833325C63.2333 0.277775 64.5774 0 66.0351 0C67.5298 0 68.8875 0.29279 70.1082 0.877118C71.3289 1.4627 72.3792 2.25348 73.2593 3.25197C74.1393 4.2492 74.8157 5.36656 75.2896 6.60403C75.7624 7.84151 75.9993 9.10276 75.9993 10.3878C75.9993 11.7504 75.7537 13.0454 75.2612 14.2729C74.7688 15.5003 74.0689 16.5989 73.1605 17.5674C72.2521 18.5371 71.1882 19.3041 69.9662 19.8697C68.7455 20.4377 67.4064 20.7205 65.9499 20.7205ZM60.6981 10.3603C60.6981 11.1473 60.8117 11.9093 61.0388 12.6475C61.2659 13.387 61.6016 14.0439 62.0472 14.6195C62.4915 15.195 63.0457 15.6555 63.7085 16.0008C64.3713 16.3462 65.1279 16.5188 65.9795 16.5188C66.8695 16.5188 67.6446 16.3412 68.3074 15.9871C68.9702 15.633 69.5182 15.1575 69.9539 14.5632C70.3896 13.9688 70.7154 13.3019 70.9339 12.5624C71.1511 11.8242 71.2597 11.071 71.2597 10.3039C71.2597 9.51692 71.1462 8.75992 70.9191 8.03045C70.692 7.30097 70.3513 6.64407 69.8971 6.05849C69.4429 5.47417 68.885 5.01746 68.2222 4.69214C67.5594 4.36557 66.8127 4.20291 65.9795 4.20291C65.0896 4.20291 64.3182 4.37558 63.6653 4.72092C63.0124 5.06626 62.4631 5.53172 62.0188 6.1173C61.5744 6.70288 61.2424 7.36479 61.0252 8.10302C60.8067 8.84 60.6981 9.59324 60.6981 10.3603Z" fill="black"/>
<path d="M75.9983 43.2152C75.9983 42.6059 75.7626 42.3794 75.1282 42.3781C73.0731 42.3781 71.0193 42.3781 68.9642 42.3781C61.3303 42.3781 53.6976 42.3781 46.0637 42.3781C40.1799 42.3781 34.2962 42.3769 28.4124 42.3781L27.9187 42.3794C25.9365 42.3769 23.9542 42.3744 21.972 42.3806C21.5412 42.3819 21.2746 42.6559 21.2697 43.0763C21.2635 43.5906 21.2685 44.1048 21.2685 44.6204C21.2685 45.2823 21.4721 45.4875 22.1596 45.4887C25.0787 45.4925 27.9965 45.4925 30.9155 45.4887C30.9562 45.4887 30.997 45.4775 31.0377 45.4637H31.4141C31.4796 45.4775 31.545 45.4875 31.6104 45.4875C35.8143 45.4912 40.017 45.4925 44.2209 45.485C44.4875 45.485 44.6011 45.5638 44.7393 45.8003C44.9812 46.2132 45.2639 46.6474 45.6415 46.9326C47.0437 47.9899 48.6346 48.1488 50.2947 47.6383C51.3537 47.313 52.193 46.7049 52.6164 45.6501C52.6472 45.5738 52.7941 45.5 52.8879 45.4975C53.447 45.4837 54.0062 45.4912 54.5653 45.4912C58.1385 45.4912 61.7117 45.4912 65.2837 45.4912C65.5786 45.4912 65.8736 45.4812 66.1686 45.4812C69.2012 45.4837 72.235 45.4887 75.2676 45.4862C75.7527 45.4862 75.9946 45.231 75.9971 44.7605C76.0008 44.245 75.9983 43.7295 75.9983 43.2152Z" fill="black"/>
<path d="M75.6634 27.9626H21.6025V28.5707H75.6634V27.9626Z" fill="black"/>
<path d="M75.6634 30.8455H21.6025V31.4536H75.6634V30.8455Z" fill="black"/>
<path d="M75.6634 33.7284H21.6025V34.3365H75.6634V33.7284Z" fill="black"/>
<path d="M75.6634 36.6112H21.6025V37.2193H75.6634V36.6112Z" fill="black"/>
<path d="M75.6634 39.494H21.6025V40.1021H75.6634V39.494Z" fill="black"/>
<path d="M8.73348 47.9374C7.17337 47.9374 5.84283 47.6722 4.74186 47.1429C3.6409 46.6136 2.74605 45.8892 2.05733 44.9695C1.36985 44.0498 0.863797 43.0001 0.542888 41.8201C0.221978 40.6402 0.0615234 39.4002 0.0615234 38.099V27.9814H4.57647V38.0952C4.57647 38.8384 4.64929 39.5579 4.79617 40.2548C4.94305 40.9518 5.18126 41.5686 5.51205 42.1079C5.84283 42.6472 6.26865 43.0739 6.79198 43.3892C7.31531 43.7045 7.96207 43.8622 8.73348 43.8622C9.52218 43.8622 10.1837 43.6995 10.7157 43.3742C11.2477 43.0489 11.6698 42.6122 11.9821 42.0654C12.2943 41.5173 12.5239 40.8992 12.6708 40.2123C12.8177 39.5254 12.8905 38.8197 12.8905 38.0952V27.9814H17.4054V38.099C17.4054 39.4741 17.2351 40.7566 16.8957 41.9453C16.5563 43.1339 16.0379 44.18 15.3405 45.0809C14.6432 45.9818 13.7483 46.6837 12.656 47.1854C11.5649 47.6872 10.2578 47.9374 8.73348 47.9374Z" fill="black" stroke="black" stroke-miterlimit="10"/>
</g>
<defs>
<clipPath id="clip0">
<rect width="76" height="48" fill="white"/>
</clipPath>
</defs>
</svg>
