<svg width="99" height="50" viewBox="0 0 99 50" fill="none" xmlns="http://www.w3.org/2000/svg">
<rect x="0.5" y="0.5" width="97.2143" height="49" rx="24.5" stroke="black"/>
<path d="M31.1606 16.1607C29.9686 16.1607 28.8034 16.5142 27.8123 17.1764C26.8212 17.8386 26.0487 18.7799 25.5926 19.8811C25.1364 20.9824 25.017 22.1942 25.2496 23.3633C25.4821 24.5323 26.0561 25.6062 26.899 26.4491C27.7419 27.2919 28.8157 27.8659 29.9848 28.0985C31.1539 28.331 32.3657 28.2117 33.4669 27.7555C34.5682 27.2994 35.5094 26.5269 36.1717 25.5358C36.8339 24.5447 37.1874 23.3795 37.1874 22.1875C37.1874 20.5891 36.5524 19.0562 35.4222 17.9259C34.2919 16.7957 32.759 16.1607 31.1606 16.1607Z" fill="black"/>
<path d="M31.1607 8.92859C27.8231 8.92859 24.5605 9.91829 21.7854 11.7725C19.0103 13.6268 16.8474 16.2623 15.5702 19.3458C14.293 22.4293 13.9588 25.8223 14.6099 29.0957C15.261 32.3692 16.8682 35.376 19.2282 37.736C21.5882 40.096 24.5951 41.7032 27.8685 42.3543C31.1419 43.0055 34.5349 42.6713 37.6184 41.3941C40.7019 40.1168 43.3375 37.9539 45.1917 35.1788C47.0459 32.4038 48.0356 29.1411 48.0356 25.8036C48.0305 21.3296 46.251 17.0404 43.0874 13.8768C39.9239 10.7132 35.6346 8.93369 31.1607 8.92859V8.92859ZM40.7939 36.5626C40.7698 34.9816 40.1257 33.4733 39.0002 32.3626C37.8747 31.252 36.3579 30.628 34.7767 30.625H27.5446C25.9634 30.628 24.4466 31.252 23.3211 32.3626C22.1956 33.4733 21.5515 34.9816 21.5274 36.5626C19.3416 34.6108 17.8001 32.0412 17.1072 29.1939C16.4142 26.3465 16.6025 23.3559 17.647 20.618C18.6914 17.88 20.5429 15.5239 22.9562 13.8616C25.3695 12.1993 28.2308 11.3092 31.1613 11.3092C34.0917 11.3092 36.953 12.1993 39.3663 13.8616C41.7796 15.5239 43.6311 17.88 44.6756 20.618C45.72 23.3559 45.9083 26.3465 45.2153 29.1939C44.5224 32.0412 42.9809 34.6108 40.7951 36.5626H40.7939Z" fill="black"/>
<path d="M58.9287 17.4248C58.9287 16.6773 59.5346 16.0714 60.2821 16.0714H79.2295C79.9769 16.0714 80.5828 16.6773 80.5828 17.4248V17.4248C80.5828 18.1722 79.9769 18.7782 79.2295 18.7782H60.2821C59.5346 18.7782 58.9287 18.1722 58.9287 17.4248V17.4248Z" fill="black"/>
<rect x="58.9287" y="23.2896" width="21.6541" height="2.70677" rx="1.35338" fill="black"/>
<rect x="58.9287" y="30.5076" width="21.6541" height="2.70677" rx="1.35338" fill="black"/>
</svg>
