<svg width="64" height="85" viewBox="0 0 64 85" fill="none" xmlns="http://www.w3.org/2000/svg">
<path d="M31.7632 4.25621e-08C23.3938 -0.000447905 15.3625 3.53496 9.41477 9.83783C3.46707 16.1407 0.0836937 24.7016 0 33.6599C0 56.9498 27.9913 82.8747 29.1824 83.9797C29.9016 84.6382 30.8168 85 31.7632 85C32.7095 85 33.6247 84.6382 34.3439 83.9797C35.7336 82.8747 63.5263 56.9498 63.5263 33.6599C63.4426 24.7016 60.0592 16.1407 54.1115 9.83783C48.1638 3.53496 40.1325 -0.000447905 31.7632 4.25621e-08Z" fill="#048BA8"/>
<path d="M44.6581 40.2771V23.076C44.6573 22.9836 44.6265 22.8939 44.5705 22.8203C44.5145 22.7468 44.4362 22.6933 44.3472 22.668C39.5329 21.3457 32.0309 19.3393 27.2161 18.018C27.1546 17.9985 27.0891 17.9948 27.0258 18.0072C26.9625 18.0195 26.9032 18.0477 26.8536 18.0889C26.7517 18.1556 26.6794 18.2655 26.6794 18.4261C26.694 23.9743 26.709 29.5206 26.7226 35.0688C24.1842 33.2362 19.4906 33.7025 18.328 36.8452C17.5969 38.8253 18.1077 41.104 19.6643 42.5033C21.3209 43.9941 23.9386 43.9654 25.9281 43.3104C27.7974 42.6939 29.3117 41.0495 29.5986 39.0934C29.7428 38.1101 29.6296 37.0452 29.6296 36.0577V27.3612C32.7671 28.2336 38.5887 29.7901 41.7276 30.6668C41.7318 33.6161 41.7436 36.6963 41.7497 39.2981C40.126 38.0848 37.8623 38.0289 35.9559 38.6764C33.4743 39.5164 32.7075 41.9558 33.2052 44.3735C34.3791 50.0598 43.8598 48.5581 44.6266 43.3344C44.7708 42.3446 44.6581 41.273 44.6581 40.2795" fill="white"/>
</svg>
