<svg width="66" height="87" viewBox="0 0 66 87" fill="none" xmlns="http://www.w3.org/2000/svg">
<path d="M0.5 34.6552H0.500022C0.584849 25.5757 4.01379 16.8925 10.0511 10.4947C16.0895 4.09571 24.2507 0.499562 32.7631 0.5L0.5 34.6552ZM0.5 34.6552V34.6599M0.5 34.6552V34.6599M0.5 34.6599C0.5 46.4778 7.58734 58.8946 14.7445 68.4391C21.8933 77.9725 29.1888 84.74 29.8359 85.3403L29.8423 85.3463L29.8448 85.3485M0.5 34.6599L29.8448 85.3485M29.8448 85.3485C30.653 86.0885 31.6877 86.5 32.7632 86.5C33.8332 86.5 34.8629 86.0927 35.6693 85.3597C36.4785 84.7044 43.7574 77.9389 50.8568 68.4385C57.9897 58.8931 65.0263 46.4769 65.0263 34.6599L65.0263 34.6552M29.8448 85.3485L65.0263 34.6552M65.0263 34.6552C64.9415 25.5757 61.5125 16.8925 55.4752 10.4947M65.0263 34.6552L55.4752 10.4947M55.4752 10.4947C49.4368 4.09571 41.2756 0.499559 32.7632 0.5L55.4752 10.4947Z" fill="white" stroke="black"/>
<path d="M45.6581 41.2771V24.076C45.6573 23.9836 45.6265 23.8939 45.5705 23.8203C45.5145 23.7468 45.4362 23.6933 45.3472 23.668C40.5329 22.3457 33.0309 20.3393 28.2161 19.018C28.1546 18.9985 28.0891 18.9948 28.0258 19.0072C27.9625 19.0195 27.9032 19.0477 27.8536 19.0889C27.7517 19.1556 27.6794 19.2655 27.6794 19.4261C27.694 24.9743 27.709 30.5206 27.7226 36.0688C25.1842 34.2362 20.4906 34.7025 19.328 37.8452C18.5969 39.8253 19.1077 42.104 20.6643 43.5033C22.3209 44.9941 24.9386 44.9654 26.9281 44.3104C28.7974 43.6939 30.3117 42.0495 30.5986 40.0934C30.7428 39.1101 30.6296 38.0452 30.6296 37.0577V28.3612C33.7671 29.2336 39.5887 30.7901 42.7276 31.6668C42.7318 34.6161 42.7436 37.6963 42.7497 40.2981C41.126 39.0848 38.8623 39.0289 36.9559 39.6764C34.4743 40.5164 33.7075 42.9558 34.2052 45.3735C35.3791 51.0598 44.8598 49.5581 45.6266 44.3344C45.7708 43.3446 45.6581 42.273 45.6581 41.2795" fill="black"/>
</svg>
