<svg width="27" height="30" viewBox="0 0 27 30" fill="none" xmlns="http://www.w3.org/2000/svg">
<path d="M26.6581 22.2771V5.07603C26.6573 4.98357 26.6265 4.89386 26.5705 4.82032C26.5145 4.74677 26.4362 4.69333 26.3472 4.66799C21.5329 3.34573 14.0309 1.33933 9.21611 0.0180141C9.15458 -0.00149666 9.08914 -0.00522893 9.0258 0.00716046C8.96246 0.0195498 8.90325 0.0476633 8.85361 0.0889165C8.75172 0.155593 8.67941 0.265468 8.67941 0.426055C8.69396 5.97428 8.70899 11.5206 8.72261 17.0688C6.18421 15.2362 1.49057 15.7025 0.32796 18.8452C-0.403132 20.8253 0.10774 23.104 1.6643 24.5033C3.32088 25.9941 5.93863 25.9654 7.92813 25.3104C9.79741 24.6939 11.3117 23.0495 11.5986 21.0934C11.7428 20.1101 11.6296 19.0452 11.6296 18.0577V9.36116C14.7671 10.2336 20.5887 11.7901 23.7276 12.6668C23.7318 15.6161 23.7436 18.6963 23.7497 21.2981C22.126 20.0848 19.8623 20.0289 17.9559 20.6764C15.4743 21.5164 14.7075 23.9558 15.2052 26.3735C16.3791 32.0598 25.8598 30.5581 26.6266 25.3344C26.7708 24.3446 26.6581 23.273 26.6581 22.2795" fill="black" fill-opacity="0.8"/>
</svg>
