<?xml version="1.0" standalone="no"?>
<!DOCTYPE svg PUBLIC "-//W3C//DTD SVG 20010904//EN"
 "http://www.w3.org/TR/2001/REC-SVG-20010904/DTD/svg10.dtd">
<svg version="1.0" xmlns="http://www.w3.org/2000/svg"
 width="66.000000pt" height="87.000000pt" viewBox="0 0 66.000000 87.000000"
 preserveAspectRatio="xMidYMid meet">
<metadata>
Created by potrace 1.16, written by Peter Selinger 2001-2019
</metadata>
<g transform="translate(0.000000,87.000000) scale(0.100000,-0.100000)"
fill="#000000" stroke="none">
<path d="M210 853 c-66 -24 -161 -122 -188 -196 -67 -178 13 -386 236 -615 60
-61 84 -58 158 20 119 125 201 256 230 368 41 163 -27 328 -168 405 -45 25
-66 29 -138 32 -60 2 -98 -2 -130 -14z m202 -7 c186 -56 279 -264 204 -459
-14 -38 -50 -105 -79 -150 -64 -98 -182 -227 -207 -227 -29 0 -141 122 -220
239 -70 104 -94 172 -94 271 -1 73 3 94 27 146 69 148 224 224 369 180z"/>
<path d="M280 597 l0 -84 -28 5 c-56 8 -83 -54 -37 -84 21 -14 30 -14 54 -4
33 13 41 33 41 104 l0 48 36 -7 c75 -14 84 -21 84 -65 0 -37 -2 -41 -20 -35
-27 8 -70 -19 -70 -45 0 -47 64 -66 100 -30 19 19 20 31 18 127 l-3 106 -85
23 c-47 13 -86 24 -87 24 -2 0 -3 -37 -3 -83z"/>
</g>
</svg>
