<svg width="64" height="85" viewBox="0 0 64 85" fill="none" xmlns="http://www.w3.org/2000/svg">
<path d="M31.7632 4.25621e-08C23.3938 -0.000447905 15.3625 3.53496 9.41477 9.83783C3.46707 16.1407 0.0836937 24.7016 0 33.6599C0 56.9498 27.9913 82.8747 29.1824 83.9797C29.9016 84.6382 30.8168 85 31.7632 85C32.7095 85 33.6247 84.6382 34.3439 83.9797C35.7336 82.8747 63.5263 56.9498 63.5263 33.6599C63.4426 24.7016 60.0592 16.1407 54.1115 9.83783C48.1638 3.53496 40.1325 -0.000447905 31.7632 4.25621e-08Z" fill="#048BA8"/>
<path d="M38.75 47.99C33.7275 44.2825 25.3812 37.9625 15 36.5837L19.4375 32.2438C32.175 37.1625 38.75 47.99 38.75 47.99ZM15.53 41.0463L18.9925 38.275C29.0975 40.76 37.6675 48 37.6675 48C34.0587 45.9625 23.8212 40.95 15.53 41.0463ZM18.7087 30.9938L30.2712 20.7062L32.7612 22.1475L27.155 28.5125C33.1925 33.4912 39.8925 38.7875 39.2925 47.4213C33.3475 38.9988 26.3387 32.975 18.71 30.9938H18.7087ZM28.5925 28.33L37.4737 18C42.2125 21.875 44.8612 27.8912 44.8612 31.1412C44.475 35.2937 40.4137 45.3288 40.0387 46.4363C39.7575 43.9275 41.8312 39.4863 28.5925 28.33V28.33Z" fill="white"/>
</svg>
