<svg width="66" height="87" viewBox="0 0 66 87" fill="none" xmlns="http://www.w3.org/2000/svg">
<path d="M0.5 34.6552H0.500022C0.584849 25.5757 4.01379 16.8925 10.0511 10.4947C16.0895 4.09571 24.2507 0.499562 32.7631 0.5L0.5 34.6552ZM0.5 34.6552V34.6599M0.5 34.6552V34.6599M0.5 34.6599C0.5 46.4778 7.58734 58.8946 14.7445 68.4391C21.8933 77.9725 29.1888 84.74 29.8359 85.3403L29.8423 85.3463L29.8448 85.3485M0.5 34.6599L29.8448 85.3485M29.8448 85.3485C30.653 86.0885 31.6877 86.5 32.7632 86.5C33.8332 86.5 34.8629 86.0927 35.6693 85.3597C36.4785 84.7044 43.7574 77.9389 50.8568 68.4385C57.9897 58.8931 65.0263 46.4769 65.0263 34.6599L65.0263 34.6552M29.8448 85.3485L65.0263 34.6552M65.0263 34.6552C64.9415 25.5757 61.5125 16.8925 55.4752 10.4947M65.0263 34.6552L55.4752 10.4947M55.4752 10.4947C49.4368 4.09571 41.2756 0.499559 32.7632 0.5L55.4752 10.4947Z" fill="white" stroke="black"/>
<path d="M39.75 48.99C34.7275 45.2825 26.3812 38.9625 16 37.5837L20.4375 33.2438C33.175 38.1625 39.75 48.99 39.75 48.99ZM16.53 42.0463L19.9925 39.275C30.0975 41.76 38.6675 49 38.6675 49C35.0587 46.9625 24.8212 41.95 16.53 42.0463ZM19.7087 31.9938L31.2712 21.7062L33.7612 23.1475L28.155 29.5125C34.1925 34.4912 40.8925 39.7875 40.2925 48.4213C34.3475 39.9988 27.3387 33.975 19.71 31.9938H19.7087ZM29.5925 29.33L38.4737 19C43.2125 22.875 45.8612 28.8912 45.8612 32.1412C45.475 36.2937 41.4137 46.3288 41.0387 47.4363C40.7575 44.9275 42.8312 40.4863 29.5925 29.33V29.33Z" fill="black"/>
</svg>
