<svg width="30" height="30" viewBox="0 0 30 30" fill="none" xmlns="http://www.w3.org/2000/svg">
<path d="M23.75 29.99C18.7275 26.2825 10.3812 19.9625 0 18.5837L4.4375 14.2438C17.175 19.1625 23.75 29.99 23.75 29.99ZM0.53 23.0462L3.9925 20.275C14.0975 22.76 22.6675 30 22.6675 30C19.0587 27.9625 8.82125 22.95 0.53 23.0462ZM3.70875 12.9938L15.2712 2.70625L17.7612 4.1475L12.155 10.5125C18.1925 15.4913 24.8925 20.7875 24.2925 29.4213C18.3475 20.9988 11.3387 14.975 3.71 12.9938H3.70875ZM13.5925 10.33L22.4737 0C27.2125 3.875 29.8612 9.89125 29.8612 13.1412C29.475 17.2937 25.4137 27.3288 25.0387 28.4363C24.7575 25.9275 26.8312 21.4862 13.5925 10.33Z" fill="black" fill-opacity="0.8"/>
</svg>
