<?xml version="1.0" standalone="no"?>
<!DOCTYPE svg PUBLIC "-//W3C//DTD SVG 20010904//EN"
 "http://www.w3.org/TR/2001/REC-SVG-20010904/DTD/svg10.dtd">
<svg version="1.0" xmlns="http://www.w3.org/2000/svg"
 width="66.000000pt" height="87.000000pt" viewBox="0 0 66.000000 87.000000"
 preserveAspectRatio="xMidYMid meet">
<metadata>
Created by potrace 1.16, written by Peter Selinger 2001-2019
</metadata>
<g transform="translate(0.000000,87.000000) scale(0.100000,-0.100000)"
fill="#000000" stroke="none">
<path d="M210 853 c-66 -24 -161 -122 -188 -196 -67 -178 13 -386 236 -615 60
-61 84 -58 158 20 119 125 201 256 230 368 41 163 -27 328 -168 405 -45 25
-66 29 -138 32 -60 2 -98 -2 -130 -14z m202 -7 c186 -56 279 -264 204 -459
-14 -38 -50 -105 -79 -150 -64 -98 -182 -227 -207 -227 -29 0 -141 122 -220
239 -70 104 -94 172 -94 271 -1 73 3 94 27 146 69 148 224 224 369 180z"/>
<path d="M341 629 l-43 -50 51 -55 c28 -30 55 -70 59 -87 9 -31 10 -30 32 41
21 70 22 75 6 116 -9 24 -27 53 -39 64 l-23 21 -43 -50z"/>
<path d="M252 600 l-53 -49 33 -14 c41 -18 98 -63 134 -108 20 -23 11 -18 -27
17 -31 29 -74 61 -96 72 l-40 21 -23 -24 -23 -25 24 0 c23 0 149 -54 149 -64
0 -3 -28 8 -61 24 -50 23 -65 27 -80 17 -16 -10 -12 -13 34 -24 28 -6 69 -19
90 -27 20 -9 37 -14 37 -11 0 3 9 1 19 -5 26 -13 35 1 25 42 -4 20 -27 52 -60
84 l-53 52 25 23 c26 24 32 49 12 49 -7 -1 -37 -23 -66 -50z"/>
</g>
</svg>
